<?xml version="1.0" standalone="no"?>
<!DOCTYPE svg PUBLIC "-//W3C//DTD SVG 20010904//EN"
 "http://www.w3.org/TR/2001/REC-SVG-20010904/DTD/svg10.dtd">
<svg version="1.0" xmlns="http://www.w3.org/2000/svg"
 width="657.000000pt" height="657.000000pt" viewBox="0 0 657.000000 657.000000"
 preserveAspectRatio="xMidYMid meet">
<metadata>
Created by potrace 1.14, written by Peter Selinger 2001-2017
</metadata>
<g transform="translate(0.000000,657.000000) scale(0.100000,-0.100000)"
fill="#000000" stroke="none">
<path d="M1028 6545 c-2 -1 -37 -6 -78 -9 -41 -4 -82 -8 -90 -10 -44 -8 -143
-42 -200 -69 -36 -16 -67 -31 -70 -31 -39 -9 -179 -115 -265 -200 -47 -47
-145 -167 -145 -179 0 -4 -9 -17 -20 -29 -10 -12 -17 -25 -14 -29 2 -4 0 -11
-6 -14 -15 -9 -76 -151 -85 -195 -2 -8 -9 -35 -15 -60 -7 -25 -15 -61 -18 -80
-3 -19 -7 -1043 -9 -2275 -4 -2197 -2 -2408 27 -2500 5 -16 19 -61 31 -100 12
-38 26 -76 32 -83 5 -6 7 -12 3 -12 -8 0 46 -104 57 -108 4 -2 7 -9 7 -15 1
-33 184 -247 212 -247 5 0 6 -4 3 -10 -3 -5 1 -10 9 -10 9 0 16 -4 16 -10 0
-5 4 -10 10 -10 5 0 19 -8 29 -17 37 -34 50 -43 85 -60 20 -9 36 -21 36 -25 0
-5 4 -6 10 -3 5 3 10 1 10 -4 0 -6 3 -10 7 -9 5 0 26 -7 48 -17 22 -10 42 -19
45 -20 3 0 16 -7 30 -15 14 -7 27 -13 30 -12 3 1 23 -3 45 -9 58 -16 74 -19
135 -28 61 -9 4693 -8 4725 1 82 24 111 32 120 32 6 1 20 7 31 13 12 7 24 10
26 8 9 -9 234 111 284 150 73 58 223 214 224 232 1 5 14 24 30 43 17 19 30 40
30 47 0 7 5 13 10 13 6 0 9 3 8 8 -1 4 10 30 24 57 27 52 73 182 83 232 11 58
17 99 20 133 5 55 5 4591 0 4625 -2 17 -16 68 -30 115 -14 47 -29 95 -32 108
-3 12 -10 22 -15 22 -5 0 -6 5 -2 11 3 6 3 14 -2 18 -5 3 -24 36 -42 72 -17
36 -41 75 -51 86 -11 12 -17 23 -14 27 3 3 -2 8 -11 12 -9 3 -16 12 -16 18 0
7 -10 21 -22 33 -13 11 -37 35 -53 54 -39 43 -100 98 -145 129 -19 14 -42 32
-50 40 -8 8 -22 16 -30 18 -8 2 -22 10 -30 17 -15 14 -74 39 -76 33 0 -2 -7 2
-15 9 -20 16 -122 50 -205 67 -54 11 -151 16 -390 17 -802 3 -4283 7 -4286 4z"/>
</g>
</svg>
